<svg width="38" height="38" viewBox="0 0 38 38" fill="none" xmlns="http://www.w3.org/2000/svg">
<circle cx="19" cy="19" r="19" fill="#CC0163"/>
<path d="M9.02937 19.7924C8.50936 19.3921 8.50936 18.6079 9.02937 18.2076L17.64 11.5791C18.2976 11.0729 19.25 11.5417 19.25 12.3715V25.6285C19.25 26.4583 18.2976 26.9271 17.64 26.4209L9.02937 19.7924Z" fill="white"/>
<rect x="7" y="16" width="6" height="6" rx="1" fill="white"/>
<ellipse cx="19" cy="19" rx="1" ry="2" fill="white"/>
<path d="M24.4799 27.5445C24.6411 27.9404 25.0945 28.1333 25.4768 27.9419C26.9612 27.1988 28.2411 26.0957 29.1967 24.7284C30.3004 23.149 30.9244 21.2844 30.9936 19.3588C31.0627 17.4332 30.5741 15.5287 29.5864 13.8742C28.7314 12.4419 27.5338 11.2498 26.1066 10.4022C25.739 10.1838 25.273 10.3438 25.0837 10.7271V10.7271C24.8945 11.1105 25.0541 11.5717 25.4186 11.7952C26.5797 12.5073 27.555 13.4917 28.2571 14.6678C29.0918 16.0661 29.5048 17.6758 29.4464 19.3033C29.3879 20.9307 28.8606 22.5067 27.9277 23.8415C27.143 24.9642 26.0997 25.8762 24.8905 26.5031C24.5109 26.6999 24.3186 27.1485 24.4799 27.5445V27.5445Z" fill="white"/>
<path d="M23.3349 24.7331C23.5036 25.1472 23.979 25.3503 24.3709 25.1349C25.3093 24.6193 26.1202 23.8934 26.7377 23.0099C27.5103 21.9043 27.9471 20.5991 27.9955 19.2512C28.0439 17.9033 27.7018 16.5701 27.0105 15.412C26.458 14.4864 25.7012 13.7042 24.8022 13.1226C24.4267 12.8797 23.938 13.0481 23.7401 13.4491V13.4491C23.5422 13.8501 23.7113 14.3309 24.0781 14.5867C24.7011 15.0212 25.2276 15.5845 25.6201 16.242C26.1515 17.1322 26.4145 18.157 26.3773 19.1931C26.3401 20.2292 26.0043 21.2325 25.4104 22.0823C24.9718 22.7099 24.4062 23.234 23.7536 23.6227C23.3695 23.8516 23.1663 24.319 23.3349 24.7331V24.7331Z" fill="white"/>
<path d="M22.2307 22.0219C22.3843 22.3989 22.8195 22.5854 23.162 22.3654C23.5987 22.0848 23.9786 21.7207 24.2787 21.2914C24.7202 20.6596 24.9698 19.9138 24.9974 19.1435C25.0251 18.3733 24.8296 17.6115 24.4346 16.9497C24.1661 16.5 23.8132 16.1095 23.3978 15.7983C23.0719 15.5543 22.6245 15.7091 22.4443 16.0741V16.0741C22.2641 16.4391 22.4246 16.8748 22.7224 17.1524C22.8956 17.3139 23.0462 17.4998 23.1688 17.7053C23.4183 18.1232 23.5417 18.6043 23.5243 19.0906C23.5068 19.577 23.3492 20.048 23.0704 20.4469C22.9333 20.6431 22.7698 20.8177 22.5854 20.9664C22.2685 21.2219 22.0772 21.645 22.2307 22.0219V22.0219Z" fill="white"/>
</svg>
